HIERARCHY
ROOT joint_Root
{
	OFFSET 0.0 0.0 0.0
	CHANNELS 6 Xposition Yposition Zposition Zrotation Xrotation Yrotation 
	JOINT Hips
	{
		OFFSET 4.5925 91.4895 -427.239
		CHANNELS 6 Xposition Yposition Zposition Zrotation Xrotation Yrotation 
		JOINT Spine
		{
			OFFSET 15.7357 0.0 0.0
			CHANNELS 6 Xposition Yposition Zposition Zrotation Xrotation Yrotation 
			JOINT Chest
			{
				OFFSET 8.98455 -0.406207 0.0
				CHANNELS 6 Xposition Yposition Zposition Zrotation Xrotation Yrotation 
				JOINT Neck
				{
					OFFSET 16.3773 0.0 0.0
					CHANNELS 6 Xposition Yposition Zposition Zrotation Xrotation Yrotation 
					JOINT Head
					{
						OFFSET 6.45672 0.0 0.0
						CHANNELS 6 Xposition Yposition Zposition Zrotation Xrotation Yrotation 
						End Site
						{
							OFFSET 0.0 0.0 0.0
						}
					}
				}
				JOINT Shoulder_L
				{
					OFFSET 12.9942 -0.242716 4.98039
					CHANNELS 6 Xposition Yposition Zposition Zrotation Xrotation Yrotation 
					JOINT UpperArm_L
					{
						OFFSET 5.34809 0.0 0.0
						CHANNELS 6 Xposition Yposition Zposition Zrotation Xrotation Yrotation 
						JOINT LowerArm_L
						{
							OFFSET 24.3286 1.87007e-05 0.0
							CHANNELS 6 Xposition Yposition Zposition Zrotation Xrotation Yrotation 
							JOINT Hand_L
							{
								OFFSET 22.2916 0.0 0.0
								CHANNELS 6 Xposition Yposition Zposition Zrotation Xrotation Yrotation 
								End Site
								{
									OFFSET 0.0 0.0 0.0
								}
							}
						}
					}
				}
				JOINT Shoulder_R
				{
					OFFSET 12.9945 -0.242716 -4.98039
					CHANNELS 6 Xposition Yposition Zposition Zrotation Xrotation Yrotation 
					JOINT UpperArm_R
					{
						OFFSET -5.34813 0.0 0.0
						CHANNELS 6 Xposition Yposition Zposition Zrotation Xrotation Yrotation 
						JOINT LowerArm_R
						{
							OFFSET -24.3289 0.000322201 0.0
							CHANNELS 6 Xposition Yposition Zposition Zrotation Xrotation Yrotation 
							JOINT Hand_R
							{
								OFFSET -22.2915 -0.000108084 0.0
								CHANNELS 6 Xposition Yposition Zposition Zrotation Xrotation Yrotation 
								End Site
								{
									OFFSET 0.0 0.0 0.0
								}
							}
						}
					}
				}
			}
		}
		JOINT UpperLeg_L
		{
			OFFSET -2.19248 -6.46944 0.0
			CHANNELS 6 Xposition Yposition Zposition Zrotation Xrotation Yrotation 
			JOINT LowerLeg_L
			{
				OFFSET 39.0811 0.0 -1.23785e-05
				CHANNELS 6 Xposition Yposition Zposition Zrotation Xrotation Yrotation 
				JOINT Foot_L
				{
					OFFSET 40.9854 0.0 -1.26872e-05
					CHANNELS 6 Xposition Yposition Zposition Zrotation Xrotation Yrotation 
					JOINT Toes_L
					{
						OFFSET 11.7543 0.0 0.0
						CHANNELS 6 Xposition Yposition Zposition Zrotation Xrotation Yrotation 
						End Site
						{
							OFFSET 0.0 0.0 0.0
						}
					}
				}
			}
		}
		JOINT UpperLeg_R
		{
			OFFSET -2.19251 6.46944 0.0
			CHANNELS 6 Xposition Yposition Zposition Zrotation Xrotation Yrotation 
			JOINT LowerLeg_R
			{
				OFFSET -39.0811 -0.00228153 -0.0401928
				CHANNELS 6 Xposition Yposition Zposition Zrotation Xrotation Yrotation 
				JOINT Foot_R
				{
					OFFSET -40.9854 0.0 0.0
					CHANNELS 6 Xposition Yposition Zposition Zrotation Xrotation Yrotation 
					JOINT Toes_R
					{
						OFFSET -11.7543 0.0 0.0
						CHANNELS 6 Xposition Yposition Zposition Zrotation Xrotation Yrotation 
						End Site
						{
							OFFSET 0.0 0.0 0.0
						}
					}
				}
			}
		}
	}
}
MOTION
Frames:	8
Frame Time:	0.0333333
0.000000 0.000000 0.000000 0.000000 0.000000 -0.000000 2.328240 89.660600 506.665000 -90.385800 4.541310 177.711000 15.735700 0.000005 -0.000001 103.570000 83.126900 -104.049000 8.984550 -0.406207 -0.000000 5.617180 3.226480 -1.116600 16.377300 -0.000001 -0.000001 -1.677290 -2.729210 1.540310 6.456720 -0.000001 -0.000000 -3.687600 -3.478960 0.508573 12.994200 -0.242716 4.980390 -89.994700 -0.019037 -74.332500 5.348090 -0.000007 -0.000001 -73.574300 22.539500 16.544300 24.328600 0.000019 0.000005 1.696280 0.956408 -60.598800 22.291600 -0.000001 0.000005 11.177300 5.421660 -3.656630 12.994500 -0.242716 -4.980390 89.050000 8.099180 -83.287700 -5.348130 -0.000001 -0.000004 -56.903500 20.898700 -23.113500 -24.328900 0.000322 -0.000009 -26.811700 -0.667370 -88.679700 -22.291500 -0.000108 -0.000004 26.307600 5.646400 -14.680400 -2.192480 -6.469440 -0.000000 176.459000 -13.460100 -30.018900 39.081100 -0.000007 -0.000012 0.079687 -0.123627 32.804700 40.985400 -0.000006 -0.000013 3.265970 0.128403 -61.025600 11.754300 -0.000000 0.000003 -0.004230 -0.053817 -18.766100 -2.192510 6.469440 -0.000001 175.013000 16.436300 173.836000 -39.081100 -0.002282 -0.040193 0.071958 -0.077877 41.410600 -40.985400 0.000008 0.000006 4.294390 3.997820 -67.250400 -11.754300 -0.000006 -0.000006 -0.072476 -0.370347 -31.918100
0.000000 0.000000 0.000000 0.000000 0.000000 -0.000000 1.906190 89.357700 502.512000 -89.951600 4.522110 178.269000 15.735700 0.000005 -0.000001 102.699000 83.243200 -103.088000 8.984550 -0.406207 -0.000000 5.433020 2.971850 -0.917976 16.377300 -0.000001 -0.000001 -1.088330 -2.720290 1.754150 6.456720 -0.000001 -0.000000 -3.291150 -3.431990 0.816921 12.994200 -0.242716 4.980390 -90.132600 0.466755 -74.142900 5.348090 -0.000007 -0.000001 -72.840700 21.678700 14.413500 24.328600 0.000019 0.000005 1.476290 0.770527 -62.441500 22.291600 -0.000001 0.000005 11.555800 5.414260 -3.407230 12.994500 -0.242716 -4.980390 88.970800 8.486200 -83.059100 -5.348130 -0.000001 -0.000004 -56.678500 24.010000 -19.414600 -24.328900 0.000322 -0.000009 -26.417800 -2.748090 -84.485700 -22.291500 -0.000108 -0.000004 27.034500 5.660350 -16.070200 -2.192480 -6.469440 -0.000000 177.304000 -12.060500 -28.753200 39.081100 -0.000007 -0.000012 -0.066111 0.093477 35.269800 40.985400 -0.000006 -0.000013 3.156800 -0.352542 -59.170000 11.754300 -0.000000 0.000003 -0.001265 -0.019110 -17.353900 -2.192510 6.469440 -0.000001 174.484000 15.508700 172.793000 -39.081100 -0.002282 -0.040193 0.127225 -0.113242 47.589200 -40.985400 0.000008 0.000006 5.523350 3.254030 -61.891600 -11.754300 -0.000006 -0.000006 -0.128172 -0.509678 -38.004200
0.000000 0.000000 0.000000 0.000000 0.000000 -0.000000 1.478890 88.483800 498.309000 -89.452300 4.469670 179.332000 15.735700 0.000005 -0.000001 99.869000 83.185200 -100.154000 8.984550 -0.406207 -0.000000 5.671500 2.335570 -0.685378 16.377300 -0.000001 -0.000001 -0.720076 -2.710200 2.012290 6.456720 -0.000001 -0.000000 -3.078650 -3.271910 1.461750 12.994200 -0.242716 4.980390 -90.362300 1.265710 -74.025200 5.348090 -0.000007 -0.000001 -71.517400 21.043400 11.418800 24.328600 0.000019 0.000005 0.962744 0.434964 -65.693800 22.291600 -0.000001 0.000005 11.882400 5.425950 -3.802450 12.994500 -0.242716 -4.980390 88.858700 9.095870 -82.817700 -5.348130 -0.000001 -0.000004 -56.701000 27.129900 -15.628600 -24.328900 0.000322 -0.000009 -25.347000 -4.852420 -79.873600 -22.291500 -0.000108 -0.000004 28.146500 5.671640 -17.618400 -2.192480 -6.469440 -0.000000 178.749000 -7.604000 -27.616800 39.081100 -0.000007 -0.000012 -0.232734 0.262602 41.549900 40.985400 -0.000006 -0.000013 1.443270 -4.809860 -65.160600 11.754300 -0.000000 0.000003 -0.000002 -0.000023 -16.578400 -2.192510 6.469440 -0.000001 174.148000 14.096900 169.978000 -39.081100 -0.002282 -0.040193 0.196294 -0.126454 56.777500 -40.985400 0.000008 0.000006 6.085320 2.190750 -54.991800 -11.754300 -0.000006 -0.000006 -0.130673 -0.515055 -38.244600
0.000000 0.000000 0.000000 0.000000 0.000000 -0.000000 1.203510 87.321100 494.485000 -89.551400 3.768310 -179.440000 15.735700 0.000005 -0.000001 95.228600 82.845400 -95.632200 8.984550 -0.406207 -0.000000 6.489730 1.304540 -0.880392 16.377300 -0.000001 -0.000001 -1.092820 -2.963530 2.094320 6.456720 -0.000001 -0.000000 -3.119270 -3.266290 2.256350 12.994200 -0.242716 4.980390 -90.638300 2.245350 -74.127000 5.348090 -0.000007 -0.000001 -69.064500 21.312500 6.095650 24.328600 0.000019 0.000005 0.081907 0.031475 -69.261800 22.291600 -0.000001 0.000005 13.024400 5.424160 -3.738600 12.994500 -0.242716 -4.980390 88.704000 10.110000 -82.655900 -5.348130 -0.000001 -0.000004 -57.566700 28.805600 -11.197900 -24.328900 0.000322 -0.000009 -24.325100 -6.389080 -76.168800 -22.291500 -0.000108 -0.000004 28.865200 5.674360 -18.137500 -2.192480 -6.469440 -0.000000 178.879000 -4.666090 -26.305100 39.081100 -0.000007 -0.000012 -0.422905 0.395372 46.928100 40.985400 -0.000006 -0.000013 0.305692 -6.835340 -70.585700 11.754300 -0.000000 0.000003 -0.000090 -0.000942 -16.613800 -2.192510 6.469440 -0.000001 173.965000 12.667800 165.117000 -39.081100 -0.002282 -0.040193 0.257495 -0.104910 67.586100 -40.985400 0.000008 0.000006 6.202670 -0.500130 -47.299900 -11.754300 -0.000006 -0.000006 -0.035343 -0.240986 -26.459900
0.000000 0.000000 0.000000 0.000000 0.000000 -0.000000 0.944469 86.251500 491.014000 -90.207600 3.615890 -178.878000 15.735700 0.000005 -0.000001 93.096100 82.598600 -93.838300 8.984550 -0.406207 -0.000000 7.021270 0.801582 -1.531900 16.377300 -0.000001 -0.000001 -1.442330 -3.177280 1.952460 6.456720 -0.000001 -0.000000 -3.324030 -3.535350 2.780690 12.994200 -0.242716 4.980390 -90.871500 3.095100 -74.265500 5.348090 -0.000007 -0.000001 -65.632200 22.178100 -1.596060 24.328600 0.000019 0.000005 -0.409361 -0.132903 -72.047000 22.291600 -0.000001 0.000005 14.629000 5.424830 -3.766980 12.994500 -0.242716 -4.980390 88.553000 11.196900 -82.588100 -5.348130 -0.000001 -0.000004 -59.628400 28.735700 -5.408340 -24.328900 0.000322 -0.000009 -23.964000 -7.259700 -74.128400 -22.291500 -0.000108 -0.000004 28.618400 5.672560 -17.801000 -2.192480 -6.469440 -0.000000 178.071000 -5.476850 -25.005000 39.081100 -0.000007 -0.000012 -0.530890 0.435479 50.640000 40.985400 -0.000006 -0.000013 0.353458 -6.265680 -75.118900 11.754300 -0.000000 0.000003 -0.000206 -0.001894 -16.649000 -2.192510 6.469440 -0.000001 173.913000 11.033000 159.925000 -39.081100 -0.002282 -0.040193 0.239844 -0.058566 76.110500 -40.985400 0.000008 0.000006 6.512540 -3.661300 -48.445800 -11.754300 -0.000006 -0.000006 -0.017289 -0.151781 -22.769600
0.000000 0.000000 0.000000 0.000000 0.000000 -0.000000 0.876577 85.744300 487.727000 -90.100300 3.188350 -178.818000 15.735700 0.000005 -0.000001 90.423000 82.517600 -91.161200 8.984550 -0.406207 -0.000000 7.199490 0.113721 -1.482030 16.377300 -0.000001 -0.000001 -1.612040 -3.341950 1.663870 6.456720 -0.000001 -0.000000 -3.349750 -3.426830 2.822650 12.994200 -0.242716 4.980390 -91.136400 4.065110 -74.366600 5.348090 -0.000007 -0.000001 -61.766100 22.657400 -10.052000 24.328600 0.000019 0.000005 -1.113560 -0.312016 -74.325700 22.291600 -0.000001 0.000005 15.903400 5.434170 -4.081820 12.994500 -0.242716 -4.980390 88.401100 11.544500 -82.059700 -5.348130 -0.000001 -0.000004 -62.342700 28.591800 0.007888 -24.328900 0.000322 -0.000009 -24.459000 -8.144190 -72.700100 -22.291500 -0.000108 -0.000004 28.385800 5.670220 -17.410400 -2.192480 -6.469440 -0.000000 178.317000 -6.709440 -23.073200 39.081100 -0.000007 -0.000012 -0.564866 0.439549 52.113200 40.985400 -0.000006 -0.000013 0.732167 -4.751460 -78.449000 11.754300 -0.000000 0.000003 -0.000340 -0.002887 -16.684700 -2.192510 6.469440 -0.000001 175.119000 10.449700 155.298000 -39.081100 -0.002282 -0.040193 0.188922 -0.033073 79.920400 -40.985400 0.000008 0.000006 7.390900 -3.916360 -52.638900 -11.754300 -0.000006 -0.000006 -0.017219 -0.151363 -22.752500
0.000000 0.000000 0.000000 0.000000 0.000000 -0.000000 0.859372 85.859200 484.513000 -89.755700 1.733920 -179.236000 15.735700 0.000005 -0.000001 84.999600 82.596800 -85.506000 8.984550 -0.406207 -0.000000 6.979820 -1.282680 -0.933518 16.377300 -0.000001 -0.000001 -1.488110 -3.599920 1.400760 6.456720 -0.000001 -0.000000 -3.257870 -2.804970 2.594000 12.994200 -0.242716 4.980390 -91.201000 4.493300 -75.019000 5.348090 -0.000007 -0.000001 -59.714100 21.695200 -17.289600 24.328600 0.000019 0.000005 -1.328150 -0.324494 -76.286100 22.291600 -0.000001 0.000005 15.812200 5.440420 -4.300490 12.994500 -0.242716 -4.980390 88.304300 10.939200 -81.132700 -5.348130 -0.000001 -0.000004 -65.148800 28.872500 4.511210 -24.328900 0.000322 -0.000009 -24.926900 -8.765770 -71.844300 -22.291500 -0.000108 -0.000004 27.890500 5.665370 -16.707400 -2.192480 -6.469440 -0.000000 178.839000 -6.551910 -20.560700 39.081100 -0.000007 -0.000012 -0.560269 0.450335 51.209700 40.985400 -0.000006 -0.000013 0.956338 -3.697950 -80.421200 11.754300 -0.000000 0.000003 -0.000479 -0.003844 -16.718300 -2.192510 6.469440 -0.000001 176.741000 11.750000 151.505000 -39.081100 -0.002282 -0.040193 0.166221 -0.032934 78.597500 -40.985400 0.000008 0.000006 6.295190 -3.833080 -56.152700 -11.754300 -0.000006 -0.000006 -0.017319 -0.151960 -22.777000
0.000000 0.000000 0.000000 0.000000 0.000000 -0.000000 1.019730 86.527900 481.182000 -89.296500 0.631556 -179.391000 15.735700 0.000005 -0.000001 79.758800 82.578000 -79.977700 8.984550 -0.406207 -0.000000 6.842040 -2.628680 -0.280181 16.377300 -0.000001 -0.000001 -1.278930 -3.786620 1.138440 6.456720 -0.000001 -0.000000 -2.971120 -2.138750 2.587000 12.994200 -0.242716 4.980390 -90.951400 3.753230 -75.766900 5.348090 -0.000007 -0.000001 -60.215200 20.241300 -22.297600 24.328600 0.000019 0.000005 0.670487 0.136782 -78.402900 22.291600 -0.000001 0.000005 16.207000 5.443540 -4.409790 12.994500 -0.242716 -4.980390 88.274500 10.298200 -80.434500 -5.348130 -0.000001 -0.000004 -67.181800 29.478500 8.242490 -24.328900 0.000322 -0.000009 -24.910500 -8.696850 -71.964200 -22.291500 -0.000108 -0.000004 26.673500 5.661800 -16.258900 -2.192480 -6.469440 -0.000000 179.740000 -6.467230 -16.540600 39.081100 -0.000007 -0.000012 -0.491916 0.443597 47.957900 40.985400 -0.000006 -0.000013 0.955553 -2.691850 -81.289900 11.754300 -0.000000 0.000003 -0.000527 -0.004162 -16.729400 -2.192510 6.469440 -0.000001 178.814000 13.161300 149.682000 -39.081100 -0.002282 -0.040193 0.123580 -0.038263 72.383800 -40.985400 0.000008 0.000006 5.490610 -3.698730 -59.961800 -11.754300 -0.000006 -0.000006 -0.017066 -0.150457 -22.715200
